<?xml version="1.0" encoding="utf-8"?>
<?xml-stylesheet type="text/xsl" href="rss1.xsl"?>
<rss version="2.0" xmlns:atom="http://www.w3.org/2005/Atom" xmlns:content="http://purl.org/rss/1.0/modules/content/" xmlns:dc="http://purl.org/dc/elements/1.1/" xmlns:media="http://search.yahoo.com/mrss/">
<channel>
 <title>Getty</title>
 <link>http://www.gettyimg.com/</link>
 <atom:link href="http://www.gettyimg.com/" rel="self" type="application/rss+xml" />

 
                <item>
                <title><![CDATA[【PRORES HD】Don Toliver - Do It Right [Master ProRes 1080p] - 2022]]></title>
                <link><![CDATA[https://sharemania.us/threads/don-toliver-do-it-right-master-prores-1080p-2022.221553/]]></link>
                <description><![CDATA[<article>
<blockquote class="messageText SelectQuoteContainer ugc baseHtml">
<div style="text-align: center"><img src="https://i.ibb.co/5ccnLj4/Don-Toliver-Do-It-Right-Master-Pro-Res-1080p-mp4.png" class="bbCodeImage LbImage" alt="[​IMG]" data-url="https://i.ibb.co/5ccnLj4/Don-Toliver-Do-It-Right-Master-Pro-Res-1080p-mp4.png" style=""> <br>
<br>
<div class="ToggleTriggerAnchor bbCodeSpoilerContainer">
<button type="button" class="button bbCodeSpoilerButton ToggleTrigger Tooltip JsOnly" data-target="> .SpoilerTarget"><span>Spoiler: <span class="SpoilerTitle">Mediainfo</span></span></button>
<div class="SpoilerTarget bbCodeSpoilerText"><b>General</b><br>
Complete name : Don Toliver - Do It Right [Master ProRes 1080p].mp4<br>
Format : MPEG-4<br>
Format profile : QuickTime<br>
Codec ID : qt 2005.03 (qt )<br>
File size : 3.97 GiB<br>
Duration : 2 min 58 s<br>
Overall bit rate mode : Variable<br>
Overall bit rate : 191 Mb/s<br>
Frame rate : 24.000 FPS<br>
Encoded date : 2022-11-22 17:57:41 UTC<br>
Tagged date : 2022-11-22 17:57:58 UTC<br>
Writing library : Apple QuickTime<br>
TIM : 00:00:30:00<br>
TSC : 24<br>
TSZ : 1<br>
<br>
<b>Video</b><br>
ID : 1<br>
Format : ProRes<br>
Format version : Version 0<br>
Format profile : 422 HQ<br>
Codec ID : apch<br>
Duration : 2 min 58 s<br>
Bit rate mode : Variable<br>
Bit rate : 189 Mb/s<br>
Width : 1 920 pixels<br>
Height : 1 080 pixels<br>
Display aspect ratio : 16:9<br>
Frame rate mode : Constant<br>
Frame rate : 24.000 FPS<br>
Color space : YUV<br>
Chroma subsampling : 4:2:2<br>
Scan type : Progressive<br>
Bits/(Pixel*Frame) : 3.803<br>
Stream size : 3.94 GiB (99%)<br>
Writing library : Apple<br>
Language : English<br>
Encoded date : 2022-11-22 17:57:41 UTC<br>
Tagged date : 2022-11-22 17:57:41 UTC<br>
Color primaries : BT.709<br>
Transfer characteristics : BT.709<br>
Matrix coefficients : BT.709<br>
<br>
<b>Audio</b><br>
ID : 2<br>
Format : PCM<br>
Format settings : Little / Signed<br>
Codec ID : sowt<br>
Duration : 2 min 58 s<br>
Bit rate mode : Constant<br>
Bit rate : 1 536 kb/s<br>
Channel(s) : 2 channels<br>
Channel layout : L R<br>
Sampling rate : 48.0 kHz<br>
Bit depth : 16 bits<br>
Stream size : 32.7 MiB (1%)<br>
Language : English<br>
Encoded date : 2022-11-22 17:57:41 UTC<br>
Tagged date : 2022-11-22 17:57:41 UTC<br>
<br>
<b>Other</b><br>
ID : 3<br>
Type : Time code<br>
Format : QuickTime TC<br>
Duration : 2 min 58 s<br>
Frame rate : 24.000 FPS<br>
Time code of first frame : 00:00:30:00<br>
Time code of last frame : 00:03:28:17<br>
Time code, stripped : Yes<br>
Language : English<br>
Encoded date : 2022-11-22 17:57:41 UTC<br>
Tagged date : 2022-11-22 17:57:41 UTC</div>
</div></div><br>
<div style="text-align: center">
<div class="bbCodeBlock bbCodeVfcHH HiddenContent">
<div class="attribution type">Hidden Content:</div>
<blockquote>You must reply before you can see the hidden data contained here.</blockquote>
</div></div>
<div class="messageTextEndMarker">&nbsp;</div>
</blockquote>
</article>]]></description>
                <author><![CDATA[von_3649]]></author>
                </item>

                
                <item>
                <title><![CDATA[【HD Live Performances】Flo (Full Setlist) BBC Radio 1’s Sound of 2023]]></title>
                <link><![CDATA[https://sharemania.us/threads/flo-full-setlist-bbc-radio-1%E2%80%99s-sound-of-2023.221552/]]></link>
                <description><![CDATA[<article>
<blockquote class="messageText SelectQuoteContainer ugc baseHtml">
<img src="https://i.ytimg.com/vi/n0IQAAZlozc/maxresdefault.jpg" class="bbCodeImage LbImage" alt="[​IMG]" data-url="https://i.ytimg.com/vi/n0IQAAZlozc/maxresdefault.jpg" style=""><br>
hi if anyone can help download flo’s setlist from bbc player ! Im from the us &amp; not intelligent enough to understand how to download this performance! If anyone’s can help me !<br>
<br>
<span style="font-size: 22px"><b>BBC Radio 1’s Sound of 2023</b><br>
<br>
<b>Link to full performance:</b><br>
<b><a href="https://www.bbc.co.uk/events/ed8wxj/play/ancmn3/p0fcphmw" target="_blank" class="externalLink" rel="nofollow">https://www.bbc.co.uk/events/ed8wxj/play/ancmn3/p0fcphmw</a></b><br>
</span>
<div class="messageTextEndMarker">&nbsp;</div>
</blockquote>
</article>]]></description>
                <author><![CDATA[vinnypoohgomez]]></author>
                </item>

                </channel></rss>